<svg version="1.1" viewBox="0.0 0.0 100.0 100.0" fill="none" stroke="none" stroke-linecap="square" stroke-miterlimit="10" xmlns:xlink="http://www.w3.org/1999/xlink" xmlns="http://www.w3.org/2000/svg"><clipPath id="p.0"><path d="m0 0l100.0 0l0 100.0l-100.0 0l0 -100.0z" clip-rule="nonzero"/></clipPath><g clip-path="url(#p.0)"><path fill="#000000" fill-opacity="0.0" d="m0 0l100.0 0l0 100.0l-100.0 0z" fill-rule="evenodd"/><path fill="#000000" fill-opacity="0.0" d="m10.519685 50.0l0 0c0 -21.804377 17.675938 -39.480316 39.480316 -39.480316l0 0c10.470829 0 20.512802 4.159521 27.916801 11.563518c7.4039917 7.4039936 11.563515 17.445969 11.563515 27.916798l0 0c0 21.804375 -17.675941 39.480316 -39.480316 39.480316l0 0c-21.804377 0 -39.480316 -17.675941 -39.480316 -39.480316z" fill-rule="evenodd"/><path stroke="#000000" stroke-width="8.0" stroke-linejoin="round" stroke-linecap="butt" d="m10.519685 50.0l0 0c0 -21.804377 17.675938 -39.480316 39.480316 -39.480316l0 0c10.470829 0 20.512802 4.159521 27.916801 11.563518c7.4039917 7.4039936 11.563515 17.445969 11.563515 27.916798l0 0c0 21.804375 -17.675941 39.480316 -39.480316 39.480316l0 0c-21.804377 0 -39.480316 -17.675941 -39.480316 -39.480316z" fill-rule="evenodd"/><path fill="#000000" fill-opacity="0.0" d="m24.786089 49.8362c2.2620316 -1.581768 7.41115 -11.127178 13.572187 -9.490597c6.1610413 1.6365814 17.251541 17.691643 23.394047 19.310085c6.1425056 1.6184387 11.21748 -7.999531 13.460979 -9.599438" fill-rule="evenodd"/><path stroke="#000000" stroke-width="8.0" stroke-linejoin="round" stroke-linecap="round" d="m24.786089 49.8362c2.2620316 -1.581768 7.41115 -11.127178 13.572187 -9.490597c6.1610413 1.6365814 17.251541 17.691643 23.394047 19.310085c6.1425056 1.6184387 11.21748 -7.999531 13.460979 -9.599438" fill-rule="evenodd"/></g></svg>