<svg version="1.1" viewBox="0.0 0.0 228.9317585301837 102.249343832021" fill="none" stroke="none" stroke-linecap="square" stroke-miterlimit="10" xmlns:xlink="http://www.w3.org/1999/xlink" xmlns="http://www.w3.org/2000/svg"><clipPath id="p.0"><path d="m0 0l228.93176 0l0 102.249344l-228.93176 0l0 -102.249344z" clip-rule="nonzero"/></clipPath><g clip-path="url(#p.0)"><path fill="#000000" fill-opacity="0.0" d="m0 0l228.93176 0l0 102.249344l-228.93176 0z" fill-rule="evenodd"/><path fill="#000000" fill-opacity="0.0" d="m144.94095 51.124672l0 0c0 -21.804377 17.675934 -39.480316 39.480316 -39.480316l0 0c10.470825 0 20.512802 4.159521 27.916794 11.563518c7.4039917 7.4039936 11.563522 17.445969 11.563522 27.916798l0 0c0 21.804375 -17.67595 39.480316 -39.480316 39.480316l0 0c-21.804382 0 -39.480316 -17.675941 -39.480316 -39.480316z" fill-rule="evenodd"/><path stroke="#000000" stroke-width="8.0" stroke-linejoin="round" stroke-linecap="butt" d="m144.94095 51.124672l0 0c0 -21.804377 17.675934 -39.480316 39.480316 -39.480316l0 0c10.470825 0 20.512802 4.159521 27.916794 11.563518c7.4039917 7.4039936 11.563522 17.445969 11.563522 27.916798l0 0c0 21.804375 -17.67595 39.480316 -39.480316 39.480316l0 0c-21.804382 0 -39.480316 -17.675941 -39.480316 -39.480316z" fill-rule="evenodd"/><path fill="#000000" fill-opacity="0.0" d="m161.48819 50.960873c2.262024 -1.581768 7.411148 -11.127178 13.572189 -9.490597c6.1610413 1.6365814 17.251541 17.691643 23.394043 19.310085c6.142502 1.6184387 11.2174835 -7.999531 13.460983 -9.599438" fill-rule="evenodd"/><path stroke="#000000" stroke-width="8.0" stroke-linejoin="round" stroke-linecap="round" d="m161.48819 50.960873c2.262024 -1.581768 7.411148 -11.127178 13.572189 -9.490597c6.1610413 1.6365814 17.251541 17.691643 23.394043 19.310085c6.142502 1.6184387 11.2174835 -7.999531 13.460983 -9.599438" fill-rule="evenodd"/><path fill="#000000" fill-opacity="0.0" d="m83.990814 51.125916l0 0c0 21.804375 -17.675941 39.480316 -39.480316 39.480316l0 0c-10.470829 0 -20.512802 -4.159523 -27.916798 -11.563515c-7.4039955 -7.4039993 -11.563517 -17.445972 -11.563517 -27.916801l0 0c0 -21.804377 17.67594 -39.480316 39.480316 -39.480316l0 0c21.804375 0 39.480316 17.675938 39.480316 39.480316z" fill-rule="evenodd"/><path stroke="#000000" stroke-width="8.0" stroke-linejoin="round" stroke-linecap="butt" d="m83.990814 51.125916l0 0c0 21.804375 -17.675941 39.480316 -39.480316 39.480316l0 0c-10.470829 0 -20.512802 -4.159523 -27.916798 -11.563515c-7.4039955 -7.4039993 -11.563517 -17.445972 -11.563517 -27.916801l0 0c0 -21.804377 17.67594 -39.480316 39.480316 -39.480316l0 0c21.804375 0 39.480316 17.675938 39.480316 39.480316z" fill-rule="evenodd"/><path fill="#000000" fill-opacity="0.0" d="m69.12467 44.481487l-49.228348 0" fill-rule="evenodd"/><path stroke="#000000" stroke-width="8.0" stroke-linejoin="round" stroke-linecap="butt" d="m69.12467 44.481487l-49.228348 0" fill-rule="evenodd"/><path fill="#000000" fill-opacity="0.0" d="m50.49475 56.71771l-11.968506 0" fill-rule="evenodd"/><path stroke="#000000" stroke-width="8.0" stroke-linejoin="round" stroke-linecap="butt" d="m50.49475 56.71771l-11.968506 0" fill-rule="evenodd"/><path fill="#000000" fill-opacity="0.0" d="m19.896326 56.71771l11.968504 0" fill-rule="evenodd"/><path stroke="#000000" stroke-width="8.0" stroke-linejoin="round" stroke-linecap="butt" d="m19.896326 56.71771l11.968504 0" fill-rule="evenodd"/><path fill="#000000" fill-opacity="0.0" d="m69.12467 56.71771l-11.968506 0" fill-rule="evenodd"/><path stroke="#000000" stroke-width="8.0" stroke-linejoin="round" stroke-linecap="butt" d="m69.12467 56.71771l-11.968506 0" fill-rule="evenodd"/><path fill="#000000" d="m97.75282 45.7775l11.363258 0l0 -11.363258l10.696968 0l0 11.363258l11.363266 0l0 10.696968l-11.363266 0l0 11.363255l-10.696968 0l0 -11.363255l-11.363258 0z" fill-rule="evenodd"/></g></svg>