<svg version="1.1" viewBox="0.0 0.0 343.9186351706037 347.48818897637796" fill="none" stroke="none" stroke-linecap="square" stroke-miterlimit="10" xmlns:xlink="http://www.w3.org/1999/xlink" xmlns="http://www.w3.org/2000/svg"><clipPath id="p.0"><path d="m0 0l343.91864 0l0 347.4882l-343.91864 0l0 -347.4882z" clip-rule="nonzero"/></clipPath><g clip-path="url(#p.0)"><path fill="#000000" fill-opacity="0.0" d="m0 0l343.91864 0l0 347.4882l-343.91864 0z" fill-rule="evenodd"/><path fill="#000000" fill-opacity="0.0" d="m106.74975 162.33453l52.29798 69.186615" fill-rule="evenodd"/><path stroke="#ffffff" stroke-width="3.0" stroke-linejoin="round" stroke-linecap="round" d="m106.74975 162.33453l52.29798 69.186615" fill-rule="evenodd"/><path fill="#000000" fill-opacity="0.0" d="m84.87219 224.23192l82.17241 -44.989044" fill-rule="evenodd"/><path stroke="#ffffff" stroke-width="2.0" stroke-linejoin="round" stroke-linecap="round" d="m84.87219 224.23192l82.17241 -44.989044" fill-rule="evenodd"/><path fill="#000000" fill-opacity="0.0" d="m78.824776 169.80511l58.873665 78.60072" fill-rule="evenodd"/><path stroke="#ffffff" stroke-width="4.0" stroke-linejoin="round" stroke-linecap="round" d="m78.824776 169.80511l58.873665 78.60072" fill-rule="evenodd"/><path fill="#000000" fill-opacity="0.0" d="m130.39146 155.75294l46.05345 61.239014" fill-rule="evenodd"/><path stroke="#ffffff" stroke-width="2.0" stroke-linejoin="round" stroke-linecap="round" d="m130.39146 155.75294l46.05345 61.239014" fill-rule="evenodd"/><path fill="#000000" fill-opacity="0.0" d="m64.59519 197.01852l90.54577 -33.611694" fill-rule="evenodd"/><path stroke="#ffffff" stroke-width="2.0" stroke-linejoin="round" stroke-linecap="round" d="m64.59519 197.01852l90.54577 -33.611694" fill-rule="evenodd"/><path fill="#000000" fill-opacity="0.0" d="m102.30289 248.24422l76.66113 -53.362396" fill-rule="evenodd"/><path stroke="#ffffff" stroke-width="2.0" stroke-linejoin="round" stroke-linecap="round" d="m102.30289 248.24422l76.66113 -53.362396" fill-rule="evenodd"/><path fill="#000000" fill-opacity="0.0" d="m64.59519 197.01852l75.40749 -27.745605" fill-rule="evenodd"/><path stroke="#ffffff" stroke-width="3.0" stroke-linejoin="round" stroke-linecap="round" d="m64.59519 197.01852l75.40749 -27.745605" fill-rule="evenodd"/><path fill="#000000" fill-opacity="0.0" d="m64.59519 197.01852l53.00759 -19.561493" fill-rule="evenodd"/><path stroke="#ffffff" stroke-width="4.0" stroke-linejoin="round" stroke-linecap="round" d="m64.59519 197.01852l53.00759 -19.561493" fill-rule="evenodd"/><path fill="#000000" fill-opacity="0.0" d="m83.98125 224.4113l69.186615 -37.538177" fill-rule="evenodd"/><path stroke="#ffffff" stroke-width="3.0" stroke-linejoin="round" stroke-linecap="round" d="m83.98125 224.4113l69.186615 -37.538177" fill-rule="evenodd"/><path fill="#000000" fill-opacity="0.0" d="m83.98125 224.4113l48.726303 -25.971603" fill-rule="evenodd"/><path stroke="#ffffff" stroke-width="4.0" stroke-linejoin="round" stroke-linecap="round" d="m83.98125 224.4113l48.726303 -25.971603" fill-rule="evenodd"/><path fill="#000000" fill-opacity="0.0" d="m102.30289 248.24422l63.67534 -44.11386" fill-rule="evenodd"/><path stroke="#ffffff" stroke-width="3.0" stroke-linejoin="round" stroke-linecap="round" d="m102.30289 248.24422l63.67534 -44.11386" fill-rule="evenodd"/><path fill="#000000" fill-opacity="0.0" d="m102.30289 248.24422l45.533066 -30.938843" fill-rule="evenodd"/><path stroke="#ffffff" stroke-width="4.0" stroke-linejoin="round" stroke-linecap="round" d="m102.30289 248.24422l45.533066 -30.938843" fill-rule="evenodd"/><path fill="#000000" fill-opacity="0.0" d="m148.90431 147.92757l43.40425 60.292877" fill-rule="evenodd"/><path stroke="#ffffff" stroke-width="2.0" stroke-linejoin="round" stroke-linecap="round" d="m148.90431 147.92757l43.40425 60.292877" fill-rule="evenodd"/><path fill="#000000" fill-opacity="0.0" d="m149.08171 148.10497l-110.4857 23.961044" fill-rule="evenodd"/><path stroke="#ffffff" stroke-width="2.0" stroke-linejoin="round" stroke-linecap="round" d="m149.08171 148.10497l-110.4857 23.961044" fill-rule="evenodd"/><path fill="#000000" fill-opacity="0.0" d="m38.592068 172.72437l77.1342 102.58542" fill-rule="evenodd"/><path stroke="#ffffff" stroke-width="4.0" stroke-linejoin="round" stroke-linecap="round" d="m38.592068 172.72437l77.1342 102.58542" fill-rule="evenodd"/><path fill="#000000" fill-opacity="0.0" d="m149.08171 148.10497l-108.829956 24.623337" fill-rule="evenodd"/><path stroke="#ffffff" stroke-width="2.0" stroke-linejoin="round" stroke-linecap="butt" d="m149.08171 148.10497l-108.829956 24.623337" fill-rule="evenodd"/><path fill="#000000" fill-opacity="0.0" d="m149.08171 148.10497l-108.28592 25.947937" fill-rule="evenodd"/><path stroke="#ffffff" stroke-width="2.0" stroke-linejoin="round" stroke-linecap="butt" d="m149.08171 148.10497l-108.28592 25.947937" fill-rule="evenodd"/><path fill="#000000" fill-opacity="0.0" d="m37.60453 173.05354l77.22882 103.67348" fill-rule="evenodd"/><path stroke="#ffffff" stroke-width="4.0" stroke-linejoin="round" stroke-linecap="round" d="m37.60453 173.05354l77.22882 103.67348" fill-rule="evenodd"/><path fill="#000000" fill-opacity="0.0" d="m192.30461 208.4018l-77.77284 65.56763" fill-rule="evenodd"/><path stroke="#ffffff" stroke-width="2.0" stroke-linejoin="round" stroke-linecap="round" d="m192.30461 208.4018l-77.77284 65.56763" fill-rule="evenodd"/><path fill="#000000" fill-opacity="0.0" d="m192.30461 208.22438l-76.708435 68.7372" fill-rule="evenodd"/><path stroke="#ffffff" stroke-width="2.0" stroke-linejoin="round" stroke-linecap="butt" d="m192.30461 208.22438l-76.708435 68.7372" fill-rule="evenodd"/><path fill="#000000" fill-opacity="0.0" d="m192.48203 208.22438l-77.08691 66.96318" fill-rule="evenodd"/><path stroke="#ffffff" stroke-width="2.0" stroke-linejoin="round" stroke-linecap="butt" d="m192.48203 208.22438l-77.08691 66.96318" fill-rule="evenodd"/><path fill="#000000" fill-opacity="0.0" d="m130.35126 282.1189c9.195587 3.1903992 12.30365 8.188019 7.835266 12.598724c-4.468384 4.4107056 -15.603203 7.336273 -28.070389 7.3752136c-12.467178 0.03894043 -23.727753 -2.816681 -28.38739 -7.198883c-4.65963 -4.382202 -1.7693863 -9.398529 7.2861786 -12.645935l20.851181 8.349579z" fill-rule="evenodd"/><path fill="#000000" fill-opacity="0.0" d="m130.35126 282.1189c9.195587 3.1903992 12.30365 8.188019 7.835266 12.598724c-4.468384 4.4107056 -15.603203 7.336273 -28.070389 7.3752136c-12.467178 0.03894043 -23.727753 -2.816681 -28.38739 -7.198883c-4.65963 -4.382202 -1.7693863 -9.398529 7.2861786 -12.645935" fill-rule="evenodd"/><path stroke="#ffffff" stroke-width="4.0" stroke-linejoin="round" stroke-linecap="round" d="m130.35126 282.1189c9.195587 3.1903992 12.30365 8.188019 7.835266 12.598724c-4.468384 4.4107056 -15.603203 7.336273 -28.070389 7.3752136c-12.467178 0.03894043 -23.727753 -2.816681 -28.38739 -7.198883c-4.65963 -4.382202 -1.7693863 -9.398529 7.2861786 -12.645935" fill-rule="evenodd"/><path fill="#000000" fill-opacity="0.0" d="m126.82691 287.69824l0 0c-0.28549957 3.4661865 -7.791893 6.22052 -16.95652 6.2218933c-9.164627 0.0013427734 -16.676727 -2.7507324 -16.969421 -6.216858l16.96276 -0.20507812z" fill-rule="evenodd"/><path fill="#000000" fill-opacity="0.0" d="m126.82691 287.69824l0 0c-0.28549957 3.4661865 -7.791893 6.22052 -16.95652 6.2218933c-9.164627 0.0013427734 -16.676727 -2.7507324 -16.969421 -6.216858" fill-rule="evenodd"/><path stroke="#ffffff" stroke-width="4.0" stroke-linejoin="round" stroke-linecap="round" d="m126.82691 287.69824l0 0c-0.28549957 3.4661865 -7.791893 6.22052 -16.95652 6.2218933c-9.164627 0.0013427734 -16.676727 -2.7507324 -16.969421 -6.216858" fill-rule="evenodd"/><path fill="#000000" fill-opacity="0.0" d="m92.90097 287.70328l3.831871 -26.988678" fill-rule="evenodd"/><path stroke="#ffffff" stroke-width="4.0" stroke-linejoin="round" stroke-linecap="round" d="m92.90097 287.70328l3.831871 -26.988678" fill-rule="evenodd"/><path fill="#000000" fill-opacity="0.0" d="m126.82691 287.69824l-2.1288223 -11.945038" fill-rule="evenodd"/><path stroke="#ffffff" stroke-width="4.0" stroke-linejoin="round" stroke-linecap="round" d="m126.82691 287.69824l-2.1288223 -11.945038" fill-rule="evenodd"/><path fill="#000000" fill-opacity="0.0" d="m140.19533 301.46643l0 0c-0.34225464 6.2891846 -13.960487 11.306152 -30.559998 11.258301c-16.59951 -0.047851562 -30.014748 -5.1427307 -30.104454 -11.4331665l30.335228 -0.06213379z" fill-rule="evenodd"/><path fill="#000000" fill-opacity="0.0" d="m140.19533 301.46643l0 0c-0.34225464 6.2891846 -13.960487 11.306152 -30.559998 11.258301c-16.59951 -0.047851562 -30.014748 -5.1427307 -30.104454 -11.4331665" fill-rule="evenodd"/><path stroke="#ffffff" stroke-width="4.0" stroke-linejoin="round" stroke-linecap="round" d="m140.19533 301.46643l0 0c-0.34225464 6.2891846 -13.960487 11.306152 -30.559998 11.258301c-16.59951 -0.047851562 -30.014748 -5.1427307 -30.104454 -11.4331665" fill-rule="evenodd"/><path fill="#000000" fill-opacity="0.0" d="m79.530876 301.29156l0.023658752 -10.951599" fill-rule="evenodd"/><path stroke="#ffffff" stroke-width="4.0" stroke-linejoin="round" stroke-linecap="round" d="m79.530876 301.29156l0.023658752 -10.951599" fill-rule="evenodd"/><path fill="#000000" fill-opacity="0.0" d="m140.19533 301.46643l0 -10.691376" fill-rule="evenodd"/><path stroke="#ffffff" stroke-width="4.0" stroke-linejoin="round" stroke-linecap="round" d="m140.19533 301.46643l0 -10.691376" fill-rule="evenodd"/><path fill="#000000" fill-opacity="0.0" d="m175.86322 104.85378c10.288727 8.544922E-4 15.4644165 -4.918297 20.57489 -9.837448c5.1104736 -4.919159 10.155716 -9.838318 20.313995 -9.837479" fill-rule="evenodd"/><path stroke="#ffffc7" stroke-width="3.0" stroke-linejoin="round" stroke-linecap="round" d="m175.86322 104.85378c10.288727 8.544922E-4 15.4644165 -4.918297 20.57489 -9.837448c5.1104736 -4.919159 10.155716 -9.838318 20.313995 -9.837479" fill-rule="evenodd"/><path fill="#000000" fill-opacity="0.0" d="m216.7521 85.178856c10.285248 8.544922E-4 15.457474 -4.918289 20.567947 -9.837448c5.1104584 -4.919159 10.15918 -9.838318 20.320938 -9.837471" fill-rule="evenodd"/><path stroke="#ffffc7" stroke-width="3.0" stroke-linejoin="round" stroke-linecap="round" d="m216.7521 85.178856c10.285248 8.544922E-4 15.457474 -4.918289 20.567947 -9.837448c5.1104584 -4.919159 10.15918 -9.838318 20.320938 -9.837471" fill-rule="evenodd"/><path fill="#000000" fill-opacity="0.0" d="m257.641 65.50394c10.281982 8.544922E-4 15.450928 -4.918297 20.561401 -9.837452c5.1104736 -4.919155 10.162445 -9.838314 20.327484 -9.837471" fill-rule="evenodd"/><path stroke="#ffffc7" stroke-width="3.0" stroke-linejoin="round" stroke-linecap="round" d="m257.641 65.50394c10.281982 8.544922E-4 15.450928 -4.918297 20.561401 -9.837452c5.1104736 -4.919155 10.162445 -9.838314 20.327484 -9.837471" fill-rule="evenodd"/><path fill="#000000" fill-opacity="0.0" d="m335.8015 83.04074c0.002380371 8.300064 -7.858673 12.508621 -15.719727 16.59919c-7.861084 4.0905685 -15.7221985 8.0631485 -15.719879 16.127235" fill-rule="evenodd"/><path stroke="#ffffc7" stroke-width="3.0" stroke-linejoin="round" stroke-linecap="round" d="m335.8015 83.04074c0.002380371 8.300064 -7.858673 12.508621 -15.719727 16.59919c-7.861084 4.0905685 -15.7221985 8.0631485 -15.719879 16.127235" fill-rule="evenodd"/><path fill="#000000" fill-opacity="0.0" d="m304.3619 115.767166c0.0023498535 8.294662 -7.858673 12.497818 -15.719757 16.588379c-7.861084 4.090576 -15.7221985 8.068558 -15.719879 16.138046" fill-rule="evenodd"/><path stroke="#ffffc7" stroke-width="3.0" stroke-linejoin="round" stroke-linecap="round" d="m304.3619 115.767166c0.0023498535 8.294662 -7.858673 12.497818 -15.719757 16.588379c-7.861084 4.090576 -15.7221985 8.068558 -15.719879 16.138046" fill-rule="evenodd"/><path fill="#000000" fill-opacity="0.0" d="m272.92227 148.49359c0.002380371 8.289261 -7.858673 12.487015 -15.719757 16.57759c-7.8610687 4.090561 -15.722183 8.073944 -15.719864 16.148834" fill-rule="evenodd"/><path stroke="#ffffc7" stroke-width="3.0" stroke-linejoin="round" stroke-linecap="round" d="m272.92227 148.49359c0.002380371 8.289261 -7.858673 12.487015 -15.719757 16.57759c-7.8610687 4.090561 -15.722183 8.073944 -15.719864 16.148834" fill-rule="evenodd"/><path fill="#000000" fill-opacity="0.0" d="m182.04387 158.39116c9.301605 -0.002166748 13.946091 -6.4812317 18.600815 -12.960312c4.654724 -6.47908 9.319687 -12.95816 18.641785 -12.960327" fill-rule="evenodd"/><path stroke="#ffffc7" stroke-width="3.0" stroke-linejoin="round" stroke-linecap="round" d="m182.04387 158.39116c9.301605 -0.002166748 13.946091 -6.4812317 18.600815 -12.960312c4.654724 -6.47908 9.319687 -12.95816 18.641785 -12.960327" fill-rule="evenodd"/><path fill="#000000" fill-opacity="0.0" d="m219.28647 132.47052c9.302155 -0.002166748 13.947189 -6.4812393 18.601913 -12.9603195c4.6547394 -6.4790726 9.319138 -12.958153 18.64067 -12.960327" fill-rule="evenodd"/><path stroke="#ffffc7" stroke-width="3.0" stroke-linejoin="round" stroke-linecap="round" d="m219.28647 132.47052c9.302155 -0.002166748 13.947189 -6.4812393 18.601913 -12.9603195c4.6547394 -6.4790726 9.319138 -12.958153 18.64067 -12.960327" fill-rule="evenodd"/><path fill="#000000" fill-opacity="0.0" d="m256.52905 106.54987c9.302734 -0.002166748 13.948334 -6.4812393 18.603058 -12.960312c4.654724 -6.47908 9.318573 -12.95816 18.639526 -12.960327" fill-rule="evenodd"/><path stroke="#ffffc7" stroke-width="3.0" stroke-linejoin="round" stroke-linecap="round" d="m256.52905 106.54987c9.302734 -0.002166748 13.948334 -6.4812393 18.603058 -12.960312c4.654724 -6.47908 9.318573 -12.95816 18.639526 -12.960327" fill-rule="evenodd"/><path fill="#000000" fill-opacity="0.0" d="m293.7814 80.73992c9.313599 0 13.970398 -6.4751587 18.627167 -12.950317c4.6567993 -6.4751587 9.313599 -12.950317 18.627167 -12.950317" fill-rule="evenodd"/><path stroke="#ffffc7" stroke-width="3.0" stroke-linejoin="round" stroke-linecap="round" d="m293.7814 80.73992c9.313599 0 13.970398 -6.4751587 18.627167 -12.950317c4.6567993 -6.4751587 9.313599 -12.950317 18.627167 -12.950317" fill-rule="evenodd"/><path fill="#000000" fill-opacity="0.0" d="m74.55538 298.76028c-8.656212 0.59265137 -48.02425 1.4215088 -51.93727 3.5559387c-3.9130192 2.1343994 30.830751 6.523102 28.459154 9.250488c-2.3715973 2.7273865 -54.783577 3.5565796 -42.688732 7.1138c12.094845 3.557251 77.0754 11.383606 115.257805 14.229584c38.182396 2.8459778 104.35023 -0.47406006 113.83662 2.8463135c9.486389 3.3203735 -45.297516 4.7438354 -56.918304 17.075897c-11.620789 12.332031 -10.672028 47.430267 -12.806427 56.91632" fill-rule="evenodd"/><path stroke="#cfe2f3" stroke-width="3.0" stroke-linejoin="round" stroke-linecap="round" d="m74.55538 298.76028c-8.656212 0.59265137 -48.02425 1.4215088 -51.93727 3.5559387c-3.9130192 2.1343994 30.830751 6.523102 28.459154 9.250488c-2.3715973 2.7273865 -54.783577 3.5565796 -42.688732 7.1138c12.094845 3.557251 77.0754 11.383606 115.257805 14.229584c38.182396 2.8459778 104.35023 -0.47406006 113.83662 2.8463135c9.486389 3.3203735 -45.297516 4.7438354 -56.918304 17.075897c-11.620789 12.332031 -10.672028 47.430267 -12.806427 56.91632" fill-rule="evenodd"/></g></svg>