<svg version="1.1" viewBox="0.0 0.0 100.0 100.0" fill="none" stroke="none" stroke-linecap="square" stroke-miterlimit="10" xmlns:xlink="http://www.w3.org/1999/xlink" xmlns="http://www.w3.org/2000/svg"><clipPath id="p.0"><path d="m0 0l100.0 0l0 100.0l-100.0 0l0 -100.0z" clip-rule="nonzero"/></clipPath><g clip-path="url(#p.0)"><path fill="#000000" fill-opacity="0.0" d="m0 0l100.0 0l0 100.0l-100.0 0z" fill-rule="evenodd"/><path fill="#000000" fill-opacity="0.0" d="m108.755905 50.0l0 0c0 -21.804377 17.675941 -39.480316 39.480316 -39.480316l0 0c10.470825 0 20.512802 4.159521 27.916794 11.563518c7.4039917 7.4039936 11.563522 17.445969 11.563522 27.916798l0 0c0 21.804375 -17.675934 39.480316 -39.480316 39.480316l0 0c-21.804375 0 -39.480316 -17.675941 -39.480316 -39.480316z" fill-rule="evenodd"/><path stroke="#000000" stroke-width="8.0" stroke-linejoin="round" stroke-linecap="butt" d="m108.755905 50.0l0 0c0 -21.804377 17.675941 -39.480316 39.480316 -39.480316l0 0c10.470825 0 20.512802 4.159521 27.916794 11.563518c7.4039917 7.4039936 11.563522 17.445969 11.563522 27.916798l0 0c0 21.804375 -17.675934 39.480316 -39.480316 39.480316l0 0c-21.804375 0 -39.480316 -17.675941 -39.480316 -39.480316z" fill-rule="evenodd"/><path fill="#000000" fill-opacity="0.0" d="m123.02231 49.8362c2.2620316 -1.581768 7.411148 -11.127178 13.572189 -9.490597c6.1610413 1.6365814 17.251541 17.691643 23.394043 19.310085c6.142502 1.6184387 11.2174835 -7.999531 13.460983 -9.599438" fill-rule="evenodd"/><path stroke="#000000" stroke-width="8.0" stroke-linejoin="round" stroke-linecap="round" d="m123.02231 49.8362c2.2620316 -1.581768 7.411148 -11.127178 13.572189 -9.490597c6.1610413 1.6365814 17.251541 17.691643 23.394043 19.310085c6.142502 1.6184387 11.2174835 -7.999531 13.460983 -9.599438" fill-rule="evenodd"/><path fill="#000000" fill-opacity="0.0" d="m89.480316 49.473682l0 0c0 21.804379 -17.675941 39.48032 -39.480316 39.48032l0 0c-10.470829 0 -20.512804 -4.159523 -27.916798 -11.563522c-7.4039965 -7.4039917 -11.563518 -17.445965 -11.563518 -27.916798l0 0c0 -21.804375 17.675938 -39.480312 39.480316 -39.480312l0 0c21.804375 0 39.480316 17.675938 39.480316 39.480312z" fill-rule="evenodd"/><path stroke="#000000" stroke-width="8.0" stroke-linejoin="round" stroke-linecap="butt" d="m89.480316 49.473682l0 0c0 21.804379 -17.675941 39.48032 -39.480316 39.48032l0 0c-10.470829 0 -20.512804 -4.159523 -27.916798 -11.563522c-7.4039965 -7.4039917 -11.563518 -17.445965 -11.563518 -27.916798l0 0c0 -21.804375 17.675938 -39.480312 39.480316 -39.480312l0 0c21.804375 0 39.480316 17.675938 39.480316 39.480312z" fill-rule="evenodd"/><path fill="#000000" fill-opacity="0.0" d="m74.614174 42.829258l-49.228348 0" fill-rule="evenodd"/><path stroke="#000000" stroke-width="8.0" stroke-linejoin="round" stroke-linecap="butt" d="m74.614174 42.829258l-49.228348 0" fill-rule="evenodd"/><path fill="#000000" fill-opacity="0.0" d="m55.984253 55.06548l-11.968506 0" fill-rule="evenodd"/><path stroke="#000000" stroke-width="8.0" stroke-linejoin="round" stroke-linecap="butt" d="m55.984253 55.06548l-11.968506 0" fill-rule="evenodd"/><path fill="#000000" fill-opacity="0.0" d="m25.385826 55.06548l11.968506 0" fill-rule="evenodd"/><path stroke="#000000" stroke-width="8.0" stroke-linejoin="round" stroke-linecap="butt" d="m25.385826 55.06548l11.968506 0" fill-rule="evenodd"/><path fill="#000000" fill-opacity="0.0" d="m74.614174 55.06548l-11.968506 0" fill-rule="evenodd"/><path stroke="#000000" stroke-width="8.0" stroke-linejoin="round" stroke-linecap="butt" d="m74.614174 55.06548l-11.968506 0" fill-rule="evenodd"/></g></svg>